<svg xmlns="http://www.w3.org/2000/svg" width="504.41" height="504.375" viewBox="0 0 504.41 504.375">
  <path id="Path_111" data-name="Path 111" d="M136.93,348.622a87.743,87.743,0,0,1-43.449-51.172l-.068-.21,9.61-3.325c5.46,16.715,23.11,25.739,39.341,20.116s25-23.8,19.534-40.518c-8.856-27.108,5.353-56.582,31.678-65.7a48.76,48.76,0,0,1,37.918,2.428,51.061,51.061,0,0,1,25.453,28.933l.125.361c.1.284.2.568.291.852l.031.095q.137.43.268.861l.1.311a90.928,90.928,0,0,1-5.149,67.331,86.779,86.779,0,0,1-49.631,44.284,83.672,83.672,0,0,1-66.048-4.644Zm62.817-5.253a75.646,75.646,0,0,0,33.914-23.847,80.649,80.649,0,0,0,14.447-74.685L248,244.5c-.076-.247-.151-.494-.232-.739s-.163-.489-.248-.731l-.1-.3c-7.545-21.253-29.769-32.247-50.611-25.024-21.025,7.286-32.375,30.828-25.3,52.482,7.243,22.17-4.38,46.279-25.909,53.739a39.825,39.825,0,0,1-24.015.7C141.459,344.889,171.477,353.164,199.747,343.369Zm50.06-.988a18.514,18.514,0,0,1,3.215-17.421,17.34,17.34,0,0,1,30.09,5.881,18.244,18.244,0,0,1-11.05,22.919,17.042,17.042,0,0,1-5.588.946A17.645,17.645,0,0,1,249.807,342.381Zm14.28-13.024a7.715,7.715,0,0,0-4.672,9.7,7.334,7.334,0,0,0,12.73,2.486,7.834,7.834,0,0,0,1.359-7.369,7.466,7.466,0,0,0-7.051-5.214A7.214,7.214,0,0,0,264.087,329.357Zm-99.634,6.734L152.459,334l9.886-7.3c18.176-13.419,25.9-38.031,18.766-59.847a31.717,31.717,0,0,1,5.505-29.833s0,0,0,0a29.927,29.927,0,0,1,13.423-9.42c15.288-5.3,32.259,3.066,37.831,18.643l.139.4c.051.149.1.3.152.45s.1.3.143.454l.153.492c10.994,35.284-7.822,73.618-41.946,85.441a64.593,64.593,0,0,1-21.127,3.555A63.771,63.771,0,0,1,164.452,336.091Zm13.234-9.545a54.743,54.743,0,0,0,15.594-2.963c1.2-.415,2.376-.874,3.532-1.366a10.913,10.913,0,0,0-3.645-5.195,12.537,12.537,0,0,0-7.235-2.182A64.374,64.374,0,0,1,177.686,326.546Zm13.12-22.981q-.205.628-.424,1.252a21.089,21.089,0,0,1,8.591,3.651,20.61,20.61,0,0,1,6.864,8.867,56.435,56.435,0,0,0,12.352-11.267,59.135,59.135,0,0,0,11.069-21.405,43.209,43.209,0,0,1-4.707,1.96,37.538,37.538,0,0,1-23.79.4,42.085,42.085,0,0,1-6.818-2.812A64.913,64.913,0,0,1,190.807,303.565Zm12.467-66.074c-10.432,3.614-16.063,15.295-12.554,26.036a66.026,66.026,0,0,1,1.989,7.605c4.282,3.535,19.809,14.092,38.694.125a58.688,58.688,0,0,0-2.6-20.041l-.163-.521c-.027-.095-.056-.186-.084-.278s-.062-.181-.095-.271l-.111-.325a20.143,20.143,0,0,0-18.814-13.386A19.087,19.087,0,0,0,203.273,237.491ZM.386,279.182c-2.014-9.758,4.057-19.385,13.533-21.46a17.6,17.6,0,0,1,20.84,13.935c2.013,9.758-4.056,19.388-13.533,21.463a17.1,17.1,0,0,1-3.656.4A17.73,17.73,0,0,1,.386,279.182Zm15.641-11.249a7.664,7.664,0,0,0-5.725,9.078,7.444,7.444,0,0,0,8.815,5.9,7.661,7.661,0,0,0,5.725-9.078,7.5,7.5,0,0,0-7.269-6.064A7.2,7.2,0,0,0,16.027,267.933Zm29.789-3.508A88.626,88.626,0,0,1,8.8,208.569a90.685,90.685,0,0,1,12.063-67.036,85.96,85.96,0,0,1,54.562-38.616l2.106,10.21c-16.751,3.667-27.485,20.687-23.924,37.939S73.7,179.37,90.45,175.7c27.166-5.947,53.966,11.976,59.74,39.953a52.873,52.873,0,0,1-6.7,38.512,50.162,50.162,0,0,1-30.831,22.715l-.363.086c-.3.072-.6.143-.9.208s-.605.129-.909.188l-.31.063a83.923,83.923,0,0,1-64.359-13ZM18.716,206.4c8.632,41.818,48.778,69.087,89.492,60.789l.34-.069c.246-.048.492-.1.74-.151s.489-.112.733-.171l.3-.069c21.366-5.278,34.524-26.751,29.951-48.9-4.612-22.348-26.019-36.665-47.718-31.914-22.219,4.863-44.138-9.8-48.862-32.677a43.352,43.352,0,0,1,2.086-24.646A80.008,80.008,0,0,0,18.716,206.4Zm185.007,47.692,9.526-3.3,3.207,9.81-9.529,3.3ZM28.631,204.229a70.178,70.178,0,0,1,1.162-33.1L33.184,159.1l5.906,10.951C49.949,190.188,72.8,200.91,94.663,196.125c16.233-3.555,32.245,7.154,35.7,23.871,3.353,16.249-6.664,32.651-22.33,36.561l-.4.1c-.15.035-.3.071-.453.1s-.3.064-.453.095l-.492.1a63.726,63.726,0,0,1-12.739,1.289C62.908,258.242,35.212,236.108,28.631,204.229Zm68.14,2.1a60.537,60.537,0,0,1-7.564,1.163c-3.9,3.975-15.87,18.644-4.565,39.57a53.857,53.857,0,0,0,19.63-.357l.523-.106c.092-.018.184-.037.274-.056s.184-.041.274-.062l.325-.079c10.369-2.6,17-13.473,14.774-24.238a20.141,20.141,0,0,0-19.519-16.285A19.42,19.42,0,0,0,96.771,206.334Zm-44.3,3.285a20.048,20.048,0,0,1-9.342,6,57.267,57.267,0,0,0,28.826,27.713,46.521,46.521,0,0,1-1.349-5.042,40.865,40.865,0,0,1,2.348-24.383,44.652,44.652,0,0,1,3.5-6.653,59.923,59.923,0,0,1-18.311-5.432q-.584-.281-1.16-.575A22.318,22.318,0,0,1,52.473,209.619Zm-13.926-7.562c.263,1.275.57,2.53.911,3.77a10.512,10.512,0,0,0,5.428-3.133,13.4,13.4,0,0,0,2.938-7.151,63.245,63.245,0,0,1-10.344-9.779A59.489,59.489,0,0,0,38.547,202.058Zm241.882,42.775c16.752-3.667,27.483-20.687,23.923-37.938s-20.087-28.3-36.839-24.638c-27.166,5.947-53.966-11.974-59.741-39.953a52.876,52.876,0,0,1,6.7-38.512A50.156,50.156,0,0,1,245.3,81.077l.363-.087c.3-.071.6-.143.9-.209s.606-.127.908-.189l.313-.061a83.939,83.939,0,0,1,64.357,13,88.633,88.633,0,0,1,37.014,55.859A90.68,90.68,0,0,1,337.1,216.427a85.951,85.951,0,0,1-54.562,38.616Zm33.839-40.109a43.351,43.351,0,0,1-2.088,24.646,80.005,80.005,0,0,0,27.065-77.808c-8.632-41.816-48.777-69.087-89.493-60.789l-.338.067c-.246.05-.492.1-.74.152s-.489.112-.733.17l-.3.072c-21.368,5.277-34.526,26.749-29.953,48.9,4.611,22.348,26.02,36.663,47.719,31.914a40.1,40.1,0,0,1,8.576-.932C293.012,171.115,310.155,184.8,314.267,204.724ZM94.55,222.871l9.832-2.152,2.09,10.127L96.639,233Zm162.775-5.354c-2.013-9.758,4.059-19.387,13.535-21.46A17.6,17.6,0,0,1,291.7,209.995c2.014,9.758-4.057,19.385-13.533,21.458a17.078,17.078,0,0,1-3.657.4A17.728,17.728,0,0,1,257.325,217.518Zm15.641-11.251a7.669,7.669,0,0,0-5.727,9.082,7.449,7.449,0,0,0,8.817,5.9,7.663,7.663,0,0,0,5.725-9.08,7.5,7.5,0,0,0-7.269-6.065A7.239,7.239,0,0,0,272.966,206.267Zm45.905-18.359c-10.858-20.135-33.711-30.857-55.574-26.071-16.231,3.553-32.243-7.156-35.695-23.873-3.352-16.249,6.662-32.651,22.328-36.56l.4-.1c.149-.035.3-.071.452-.1l.455-.095.492-.1c35.3-7.193,70.115,16.459,77.6,52.723a70.214,70.214,0,0,1-1.161,33.1l-3.394,12.027Zm-5.8-32.642a13.391,13.391,0,0,0-2.938,7.151,63.164,63.164,0,0,1,10.346,9.779,59.506,59.506,0,0,0-1.068-16.294c-.263-1.275-.57-2.53-.911-3.768A10.511,10.511,0,0,0,313.075,155.266Zm-25.721-35.6A40.851,40.851,0,0,1,285,144.054a44.326,44.326,0,0,1-3.5,6.651,60.007,60.007,0,0,1,18.313,5.432c.387.187.774.38,1.159.574a22.317,22.317,0,0,1,4.507-8.368,20.02,20.02,0,0,1,9.343-6,57.258,57.258,0,0,0-28.825-27.713A47.067,47.067,0,0,1,287.354,119.669Zm-33.664-8.416-.523.1c-.092.018-.184.037-.276.056s-.182.042-.272.064l-.327.075c-10.369,2.607-17,13.475-14.774,24.242a20,20,0,0,0,23.673,15.832,60.553,60.553,0,0,1,7.564-1.162c3.9-3.977,15.87-18.646,4.565-39.57a53.864,53.864,0,0,0-19.63.359ZM66.264,147.967c-2.014-9.76,4.057-19.387,13.533-21.461a17.6,17.6,0,0,1,20.84,13.936c2.013,9.758-4.059,19.385-13.534,21.46a17.115,17.115,0,0,1-3.656.4A17.726,17.726,0,0,1,66.264,147.967ZM81.9,136.717a7.662,7.662,0,0,0-5.724,9.08,7.445,7.445,0,0,0,8.815,5.9,7.665,7.665,0,0,0,5.725-9.078,7.5,7.5,0,0,0-7.269-6.066A7.222,7.222,0,0,0,81.9,136.717Zm44.562,11a51.058,51.058,0,0,1-25.45-28.931l-.125-.361c-.1-.3-.209-.6-.306-.9s-.192-.6-.285-.909l-.095-.31a90.927,90.927,0,0,1,5.149-67.331A86.779,86.779,0,0,1,154.984,4.7a83.672,83.672,0,0,1,66.048,4.644,87.737,87.737,0,0,1,43.447,51.172l.068.21-9.608,3.326c-5.461-16.715-23.11-25.74-39.341-20.116s-25,23.8-19.535,40.518c8.858,27.108-5.353,56.582-31.676,65.7a48.757,48.757,0,0,1-37.921-2.429ZM158.215,14.591A75.633,75.633,0,0,0,124.3,38.439a80.648,80.648,0,0,0-14.447,74.686l.1.337c.076.247.151.494.232.739s.165.489.249.733l.1.3c7.547,21.253,29.771,32.247,50.612,25.024,21.025-7.286,32.375-30.828,25.3-52.482-7.245-22.17,4.38-46.279,25.909-53.739a39.814,39.814,0,0,1,24.013-.7,75.653,75.653,0,0,0-53.872-22.861A74.056,74.056,0,0,0,158.215,14.591Zm93.276,112.523,9.832-2.152,2.089,10.127-9.832,2.152Zm-131.4-15.394-.137-.4c-.051-.149-.1-.3-.153-.451s-.1-.3-.143-.454l-.152-.492c-10.994-35.284,7.822-73.618,41.944-85.441a64.428,64.428,0,0,1,32.063-2.613L205.5,23.96l-9.888,7.3C177.439,44.677,169.721,69.289,176.848,91.1a31.719,31.719,0,0,1-5.5,29.834s0,0,0,0a29.913,29.913,0,0,1-13.421,9.42,28.781,28.781,0,0,1-9.44,1.591A30.384,30.384,0,0,1,120.088,111.72Zm6.47-25.016a58.648,58.648,0,0,0,2.6,20.041l.162.523c.027.093.058.185.086.276s.06.18.093.273l.11.322a19.94,19.94,0,0,0,25.078,12.332c10.433-3.614,16.063-15.295,12.554-26.036a65.729,65.729,0,0,1-1.988-7.6,31.156,31.156,0,0,0-19.263-7.156C140.264,79.673,133.649,81.46,126.559,86.7ZM157.2,70.942a41.827,41.827,0,0,1,6.818,2.813A64.914,64.914,0,0,1,167.155,54.4c.135-.418.279-.835.422-1.254a21.072,21.072,0,0,1-8.591-3.649,20.6,20.6,0,0,1-6.863-8.866,56.4,56.4,0,0,0-12.351,11.267A59.177,59.177,0,0,0,128.7,73.3a43,43,0,0,1,4.708-1.958,37.518,37.518,0,0,1,23.79-.4Zm7.48-36.565c-1.2.415-2.376.874-3.531,1.366a10.9,10.9,0,0,0,3.646,5.2,12.537,12.537,0,0,0,7.235,2.182,64.469,64.469,0,0,1,8.244-11.706A54.747,54.747,0,0,0,164.679,34.377ZM141.5,97.361l9.53-3.3,3.2,9.811-9.527,3.3ZM323.2,86.3c-2.013-9.758,4.054-19.388,13.532-21.463a17.6,17.6,0,0,1,20.84,13.938c2.015,9.758-4.056,19.385-13.533,21.46a17.108,17.108,0,0,1-3.658.4A17.726,17.726,0,0,1,323.2,86.3Zm15.639-11.251a7.663,7.663,0,0,0-5.725,9.08,7.444,7.444,0,0,0,8.815,5.9,7.663,7.663,0,0,0,5.727-9.078,7.5,7.5,0,0,0-7.27-6.065A7.229,7.229,0,0,0,338.842,75.052ZM74.849,27.118A18.244,18.244,0,0,1,85.9,4.2a17.478,17.478,0,0,1,22.255,11.379,18.512,18.512,0,0,1-3.214,17.416l0,0A17.441,17.441,0,0,1,97.1,38.5a17.04,17.04,0,0,1-5.589.946A17.648,17.648,0,0,1,74.849,27.118ZM89.133,14.093a7.4,7.4,0,0,0-3.315,2.328,7.838,7.838,0,0,0-1.361,7.369A7.4,7.4,0,0,0,93.875,28.6a7.718,7.718,0,0,0,4.673-9.7A7.468,7.468,0,0,0,91.5,13.693,7.2,7.2,0,0,0,89.133,14.093Z" transform="translate(291.711 2.253) rotate(54)" fill="none" stroke="#fff" stroke-width="1"/>
</svg>
