<svg xmlns="http://www.w3.org/2000/svg" width="565" height="151" viewBox="0 0 565 151">
  <g id="Group_30" data-name="Group 30" transform="translate(2538.135 -888.752)">
    <path id="Union_4" data-name="Union 4" d="M-6452.717,1069.288a7.052,7.052,0,0,1-1.7-1.652,7.32,7.32,0,0,1,.073-8.638,7.769,7.769,0,0,1,6.695-3.183,7.332,7.332,0,0,1,3.792,1.3,7.259,7.259,0,0,1,1.623,10.29,7.775,7.775,0,0,1-6.275,3.194A7.358,7.358,0,0,1-6452.717,1069.288Zm1.87-7.866a3.072,3.072,0,0,0,.687,4.354,3.114,3.114,0,0,0,1.606.548,3.291,3.291,0,0,0,2.832-1.348,3.1,3.1,0,0,0,.031-3.655,3.038,3.038,0,0,0-.719-.7,3.113,3.113,0,0,0-1.781-.552A3.288,3.288,0,0,0-6450.847,1061.422Zm34.164-12.783,2.941-3.211a13.465,13.465,0,0,0,18.747-1.228,12.922,12.922,0,0,0-.721-18.456,20.952,20.952,0,0,1-1.169-29.927,22.191,22.191,0,0,1,14.7-7.174,21.082,21.082,0,0,1,15.29,4.829l.119.1c.1.083.2.167.292.253s.192.173.289.259l.1.091a34.9,34.9,0,0,1,11.44,24.883,36.823,36.823,0,0,1-9.817,26.162,38.062,38.062,0,0,1-25.687,12.353q-1.258.082-2.505.082A35.978,35.978,0,0,1-6416.683,1048.639Zm22.974-50.01a16.736,16.736,0,0,0,.935,23.9,16.779,16.779,0,0,1,2.428,2.664,17.25,17.25,0,0,1-1.471,21.813,18.169,18.169,0,0,1-8.867,5.333,33.622,33.622,0,0,0,33.033-9.933c12.046-13.154,11.4-33.368-1.433-45.063l-.106-.1-.234-.212c-.077-.068-.158-.136-.238-.2l-.1-.084a16.843,16.843,0,0,0-10.871-3.943A17.731,17.731,0,0,0-6393.708,998.629Zm-75.85,47.247a35.26,35.26,0,0,1-8.4-8.176,34.936,34.936,0,0,1-6.287-15.229,36.423,36.423,0,0,1,6.645-27.182l.054-.075,3.494,2.424a12.833,12.833,0,0,0,2.87,18.192,13.555,13.555,0,0,0,18.541-3.34c7.006-9.625,20.492-12.055,30.065-5.413a20.305,20.305,0,0,1,8.513,13.378,21.2,21.2,0,0,1-3.537,15.669l-.093.13c-.072.1-.144.206-.217.308l-.024.032c-.075.1-.15.2-.225.3l-.082.109a38.124,38.124,0,0,1-24.086,14.758,38.114,38.114,0,0,1-6.511.564A36.188,36.188,0,0,1-6469.559,1045.876Zm2.558-3.514a31.786,31.786,0,0,0,16.433,5.593,33.847,33.847,0,0,0,28.867-13.423l.088-.118c.065-.086.13-.172.194-.26s.125-.175.186-.263l.079-.109a16.494,16.494,0,0,0-3.982-23.193,17.56,17.56,0,0,0-24.016,4.325,17.978,17.978,0,0,1-24.591,4.428,16.6,16.6,0,0,1-6.149-7.926A31.136,31.136,0,0,0-6467,1042.362Zm82.016,2.082a21.268,21.268,0,0,0-4.848-25.123,12.517,12.517,0,0,1-.7-17.881,13.132,13.132,0,0,1,17.887-1.429l.132.112.147.127.144.131.155.141c11.128,10.139,11.686,27.67,1.239,39.077a29.405,29.405,0,0,1-11.5,7.715l-4.913,1.8Zm6.488-9.188a26.109,26.109,0,0,1-.767,5.883,24.806,24.806,0,0,0,5.258-4.35c.369-.4.718-.812,1.054-1.231a4.42,4.42,0,0,0-2.4-1.064c-.132-.013-.263-.019-.393-.019A5.9,5.9,0,0,0-6378.5,1035.256Zm3.626-5.015a8.4,8.4,0,0,1,4.334,1.68,23.752,23.752,0,0,0,2.294-16.507,19.681,19.681,0,0,1-1.376,1.69,17.123,17.123,0,0,1-8.842,5.181,18.7,18.7,0,0,1-3.114.451,24.908,24.908,0,0,1,2.667,7.5c.033.177.062.355.091.532a9.6,9.6,0,0,1,3.182-.564Q-6375.259,1030.207-6374.871,1030.241Zm-12.483-25.99a8.3,8.3,0,0,0,.463,11.86,25.386,25.386,0,0,1,2.257,2.265c2.307.342,10.227.783,14.534-8.153a22.694,22.694,0,0,0-1.932-3.165,22.526,22.526,0,0,0-3.023-3.365l-.165-.151-.086-.079c-.029-.026-.059-.052-.09-.076l-.106-.092a8.317,8.317,0,0,0-5.339-1.892A8.84,8.84,0,0,0-6387.354,1004.251Zm-77.09,34.6a27.007,27.007,0,0,1-6.408-6.253,26.7,26.7,0,0,1-2.373-3.916l-2.245-4.557,4.908,1.545a22.766,22.766,0,0,0,24.9-8.331,13.309,13.309,0,0,1,11.466-5.452h0a12.584,12.584,0,0,1,6.5,2.217,12.492,12.492,0,0,1,3,17.321l-.1.144c-.04.054-.077.109-.116.162s-.079.107-.119.159l-.129.172a29.342,29.342,0,0,1-23.442,11.682A27.681,27.681,0,0,1-6464.444,1038.85Zm8.731-9.251c-.176.057-.352.11-.528.164a8.732,8.732,0,0,1,.877,3.791,8.551,8.551,0,0,1-1.314,4.485,23.725,23.725,0,0,0,6.86,1.4,24.857,24.857,0,0,0,9.979-1.511,18.147,18.147,0,0,1-1.823-1.106,15.657,15.657,0,0,1-5.992-7.925,17.447,17.447,0,0,1-.726-2.987A27.265,27.265,0,0,1-6455.712,1029.6Zm-6.175,5.737c.436.3.881.587,1.333.856a4.524,4.524,0,0,0,.862-2.5,5.2,5.2,0,0,0-1.04-2.972,27.1,27.1,0,0,1-6,.086A22.891,22.891,0,0,0-6461.887,1035.336Zm19.723-15.573a27.9,27.9,0,0,1-2.089,2.533c-.144,2.309.1,10.13,9.485,13.076a24.491,24.491,0,0,0,6.152-5.786l.137-.182c.026-.032.049-.065.074-.1l.068-.1.083-.118a8.358,8.358,0,0,0-.1-9.621,7.953,7.953,0,0,0-1.9-1.853,8.365,8.365,0,0,0-4.786-1.484A8.825,8.825,0,0,0-6442.164,1019.762Zm32.4,21.625a7.137,7.137,0,0,1-1.035-1.137,7.357,7.357,0,0,1,.626-9.3,7.617,7.617,0,0,1,10.6-.694,7.308,7.308,0,0,1,.408,10.44,7.757,7.757,0,0,1-5.72,2.522A7.334,7.334,0,0,1-6409.764,1041.387Zm2.767-7.629a3.1,3.1,0,0,0,.173,4.417,3.223,3.223,0,0,0,4.487-.293,3.114,3.114,0,0,0,.266-3.937,3.022,3.022,0,0,0-.437-.48,3.108,3.108,0,0,0-2.067-.772A3.286,3.286,0,0,0-6407,1033.758Zm457.524,2.5-17.694-28.092-17.694,28.092H-6003l26.84-42.287-25.492-40.216h18.145l16.344,25.875,16.344-25.875h18.143l-25.49,40.216,26.84,42.287Zm-96.567,0v-29.866l-25.342-52.637h16.944l15.895,32.972,15.744-32.972h16.944l-24.742,51.9v30.6Zm-45.885,0V953.012h15.294v83.242Zm-46.635,0V953.012h15.3v67.865h28.19v15.23h-28.19v.147Zm-46.633,0V953.012h15.294v67.865h28.19v15.23h-28.19v.147Zm-20.543,0V953.012h15.294v83.242Zm-19.943,0-16.044-44.356-23.693,44.356-23.691-44.356L-6305,1036.254H-6321.2l23.841-66.386,6.149-17.151,7.947,16.264,17.843,36.52,17.994-36.52,7.947-16.264,6.147,17.151,23.843,66.386Zm-95.518,0h0Zm-27.88-4.8a7.05,7.05,0,0,1-1.035-1.135,7.357,7.357,0,0,1,.627-9.3,7.617,7.617,0,0,1,10.6-.7,7.309,7.309,0,0,1,.408,10.439,7.758,7.758,0,0,1-5.721,2.522A7.335,7.335,0,0,1-6349.076,1031.455Zm2.769-7.628a3.09,3.09,0,0,0,.173,4.415,3.219,3.219,0,0,0,4.486-.292,3.111,3.111,0,0,0,.266-3.937,3.014,3.014,0,0,0-.437-.48,3.1,3.1,0,0,0-2.066-.774A3.285,3.285,0,0,0-6346.308,1023.828Zm-91.994,1.49,2.537-3.483,3.463,2.4-2.535,3.483Zm54.413-15.3,2.917-3.186,3.15,2.789-2.917,3.185Zm-82.022-13.306-.119-.1c-.1-.084-.2-.167-.292-.253s-.194-.174-.289-.261l-.1-.089a35.428,35.428,0,0,1-4.748-5.286,34.966,34.966,0,0,1-6.692-19.6,36.83,36.83,0,0,1,9.816-26.162,38.069,38.069,0,0,1,25.689-12.353,36.12,36.12,0,0,1,26.521,8.936l-2.941,3.211a13.465,13.465,0,0,0-18.748,1.228,12.92,12.92,0,0,0,.723,18.455,20.954,20.954,0,0,1,1.169,29.929,22.191,22.191,0,0,1-14.7,7.174q-.861.066-1.714.066A20.981,20.981,0,0,1-6465.911,996.716Zm.756-48.938c-12.046,13.154-11.4,33.368,1.434,45.063l.106.1c.078.071.155.143.235.212s.158.138.238.206l.1.084a17.336,17.336,0,0,0,23.946-1.879,16.735,16.735,0,0,0-.933-23.9,17.138,17.138,0,0,1-.957-24.479,18.183,18.183,0,0,1,8.865-5.333,32.807,32.807,0,0,0-8.168-1.027A33.721,33.721,0,0,0-6465.155,947.777Zm106.4,44.772a12.832,12.832,0,0,0-2.87-18.19,13.555,13.555,0,0,0-18.541,3.339c-7.006,9.627-20.494,12.055-30.065,5.414a20.562,20.562,0,0,1-4.89-4.759,20.367,20.367,0,0,1-3.625-8.62,21.194,21.194,0,0,1,3.538-15.667l.091-.131c.077-.109.152-.216.23-.323s.158-.212.238-.319l.082-.107a38.116,38.116,0,0,1,24.086-14.758,36.5,36.5,0,0,1,27.228,5.886,34.843,34.843,0,0,1,14.688,23.405A36.416,36.416,0,0,1-6355.2,994.9l-.055.075Zm-52.354-36.892-.09.117c-.063.086-.13.172-.192.259s-.125.175-.187.264l-.077.107a16.5,16.5,0,0,0,3.982,23.193,17.559,17.559,0,0,0,24.016-4.325,17.98,17.98,0,0,1,24.591-4.428,16.6,16.6,0,0,1,6.147,7.926,31.4,31.4,0,0,0-5.516-23.762,30.961,30.961,0,0,0-7.375-7.183,31.806,31.806,0,0,0-16.433-5.593c-.609-.033-1.22-.05-1.83-.05A33.84,33.84,0,0,0-6411.1,955.658Zm-49.059,34.518-.13-.11-.147-.128c-.049-.042-.1-.086-.144-.13l-.155-.141a26.687,26.687,0,0,1-3.574-3.979,27.83,27.83,0,0,1,2.335-35.1,29.414,29.414,0,0,1,11.5-7.717l4.911-1.8-2.256,4.673a21.266,21.266,0,0,0,4.846,25.123,12.52,12.52,0,0,1,.7,17.882,13.33,13.33,0,0,1-9.819,4.294A12.536,12.536,0,0,1-6460.164,990.176Zm-2.542-10.209a22.451,22.451,0,0,0,4.955,6.53l.165.151c.028.028.057.054.086.079l.088.076.107.091a8.711,8.711,0,0,0,11.853-.957,8.361,8.361,0,0,0,.712-10.569,8.1,8.1,0,0,0-1.176-1.289,25.315,25.315,0,0,1-2.256-2.265,13.75,13.75,0,0,0-2-.141C-6453.514,971.672-6459.263,972.823-6462.706,979.967Zm-1.857-5.191a19.079,19.079,0,0,1,1.376-1.691,17.147,17.147,0,0,1,8.841-5.181,19.078,19.078,0,0,1,3.116-.451,24.831,24.831,0,0,1-2.667-7.5c-.033-.178-.062-.355-.091-.532a9.408,9.408,0,0,1-3.947.53,8.431,8.431,0,0,1-4.334-1.68A23.755,23.755,0,0,0-6464.562,974.776Zm5.76-21.375c-.367.4-.717.812-1.053,1.231a4.423,4.423,0,0,0,2.4,1.062,5.637,5.637,0,0,0,3.147-.76,26.2,26.2,0,0,1,.768-5.883A24.88,24.88,0,0,0-6458.8,953.4Zm3.819,27.164,2.917-3.185,3.15,2.787-2.917,3.185Zm56.371-2.262h0a12.561,12.561,0,0,1-6.5-2.218,12.026,12.026,0,0,1-2.863-2.792,12.609,12.609,0,0,1-.134-14.529l.1-.144c.039-.054.075-.107.116-.161s.078-.107.119-.16l.129-.172c9.25-12.348,26.875-15.395,39.283-6.788a26.88,26.88,0,0,1,8.78,10.17l2.245,4.555-4.909-1.545a22.762,22.762,0,0,0-24.9,8.333,13.319,13.319,0,0,1-10.748,5.471C-6398.135,978.323-6398.374,978.316-6398.613,978.3Zm-5.578-17.7-.137.183c-.024.032-.047.065-.072.1l-.07.1-.082.117a8.282,8.282,0,0,0,2,11.476,8.711,8.711,0,0,0,11.914-2.145,27.692,27.692,0,0,1,2.087-2.533,12.934,12.934,0,0,0-2.317-8.247,13.542,13.542,0,0,0-7.168-4.829A24.54,24.54,0,0,0-6404.191,960.6Zm11.223-8.346a17.921,17.921,0,0,1,1.823,1.108,15.882,15.882,0,0,1,3.8,3.686,15.812,15.812,0,0,1,2.191,4.239,17.181,17.181,0,0,1,.726,2.987,27.2,27.2,0,0,1,7.334-3.684c.174-.057.352-.11.528-.165a8.747,8.747,0,0,1-.879-3.79,8.559,8.559,0,0,1,1.316-4.487,23.78,23.78,0,0,0-6.86-1.4q-.672-.037-1.346-.037A24.985,24.985,0,0,0-6392.968,952.256Zm19.854,4.242a5.216,5.216,0,0,0,1.042,2.974,27.186,27.186,0,0,1,6-.088,22.871,22.871,0,0,0-4.843-4.532c-.436-.3-.882-.587-1.332-.856A4.538,4.538,0,0,0-6373.115,956.5Zm-120.812,13.37a7.16,7.16,0,0,1-1.036-1.137,7.359,7.359,0,0,1,.628-9.3,7.618,7.618,0,0,1,10.6-.694,7.309,7.309,0,0,1,.408,10.44,7.761,7.761,0,0,1-5.722,2.523A7.331,7.331,0,0,1-6493.927,969.868Zm2.769-7.629a3.09,3.09,0,0,0,.173,4.415,3.22,3.22,0,0,0,4.487-.294,3.112,3.112,0,0,0,.264-3.935,3.037,3.037,0,0,0-.437-.48,3.1,3.1,0,0,0-2.066-.773A3.287,3.287,0,0,0-6491.158,962.238Zm90.654,3.713,2.534-3.485,3.467,2.4-2.537,3.483Zm-32.733-6.016a7.236,7.236,0,0,1-1.035-1.135,7.359,7.359,0,0,1,.626-9.3,7.617,7.617,0,0,1,10.6-.694,7.309,7.309,0,0,1,.409,10.44,7.756,7.756,0,0,1-5.72,2.521A7.339,7.339,0,0,1-6433.237,959.936Zm2.769-7.628a3.09,3.09,0,0,0,.172,4.416,3.221,3.221,0,0,0,4.486-.294,3.112,3.112,0,0,0,.266-3.935,2.968,2.968,0,0,0-.438-.482,3.1,3.1,0,0,0-2.064-.773A3.282,3.282,0,0,0-6430.468,952.308Zm428.813,1.443h0Zm-90.269-.739h0Zm-46.635,0h0Zm-46.633,0h0Zm-20.543,0h0Zm-179.424-18.638h0a7.328,7.328,0,0,1-3.792-1.294,7.138,7.138,0,0,1-1.7-1.652,7.326,7.326,0,0,1,.074-8.638,7.668,7.668,0,0,1,10.489-1.889,7.26,7.26,0,0,1,1.622,10.29,7.767,7.767,0,0,1-6.273,3.195Q-6384.949,934.385-6385.16,934.374Zm-1.924-9.162a3.073,3.073,0,0,0,.688,4.355,3.243,3.243,0,0,0,4.437-.8,3.1,3.1,0,0,0,.029-3.653,3.007,3.007,0,0,0-.716-.7,3.112,3.112,0,0,0-1.606-.548q-.088,0-.176,0A3.3,3.3,0,0,0-6387.083,925.212Z" transform="translate(3958.194 -30.842)" fill="#0f0f13"/>
  </g>
</svg>
